<svg width="322" height="324" viewBox="0 0 322 324" fill="none" xmlns="http://www.w3.org/2000/svg">
<path d="M160.952 324C249.797 324 321.82 251.47 321.82 162C321.82 72.5299 249.797 0 160.952 0C72.107 0 0.0839844 72.5299 0.0839844 162C0.0839844 251.47 72.107 324 160.952 324Z" fill="#86B6FF"/>
<path d="M87.3475 86.5587C87.3475 87.9072 87.3475 89.6752 87.1689 91.8328C86.9904 93.9904 86.9309 96.3275 86.7821 98.9646C86.6333 101.602 86.4548 104.284 86.2316 107.161C86.0084 110.038 85.7852 112.854 85.562 115.626C85.0462 122.129 84.4511 129.087 83.7766 136.498C83.7938 138.616 83.2105 140.696 82.0953 142.492C80.9663 144.277 79.4819 145.808 77.7358 146.987C75.9162 148.24 73.9061 149.185 71.7844 149.788C69.6067 150.415 67.3538 150.737 65.089 150.747C63.19 150.758 61.2983 150.511 59.4649 150.013C57.7489 149.57 56.1225 148.83 54.6591 147.825C53.2576 146.863 52.1089 145.572 51.3114 144.065C50.4518 142.343 50.0325 140.432 50.0914 138.506C50.093 137.587 50.1675 136.67 50.3145 135.764C50.4933 134.751 50.7317 133.751 51.0287 132.767C52.0404 129.186 53.2159 125.276 54.5401 120.93C55.8643 116.585 57.2182 112.344 58.5721 108.089C59.9261 103.834 61.28 99.7586 62.5596 95.9079C63.8392 92.0572 64.9997 88.7911 66.0264 86.0941C66.986 82.9321 68.8678 80.1341 71.4273 78.0632C73.4335 76.4298 75.916 75.5031 78.4947 75.4258C79.6688 75.4264 80.8301 75.672 81.9056 76.1464C82.981 76.6209 83.9473 77.3137 84.7437 78.1825C85.7092 79.334 86.4368 80.6679 86.8839 82.1061C87.331 83.5443 87.4886 85.0584 87.3475 86.5587ZM130.793 86.5587C130.793 87.9072 130.793 89.6752 130.629 91.8328C130.466 93.9904 130.391 96.3275 130.243 98.9646C130.094 101.602 129.9 104.284 129.677 107.161C129.454 110.038 129.231 112.854 129.008 115.626C128.492 122.129 127.902 129.087 127.237 136.498C127.254 138.616 126.671 140.696 125.556 142.492C124.423 144.274 122.939 145.804 121.196 146.987C119.377 148.24 117.367 149.185 115.245 149.788C113.062 150.416 110.804 150.739 108.535 150.747C106.636 150.756 104.744 150.509 102.911 150.013C101.197 149.564 99.5713 148.825 98.1047 147.825C96.7114 146.858 95.5686 145.568 94.7719 144.065C93.9072 142.344 93.4827 140.433 93.537 138.506C93.5436 137.587 93.6233 136.67 93.7751 135.764C93.9485 134.752 94.182 133.751 94.4743 132.767C95.5009 129.186 96.6615 125.276 98.0006 120.93C99.3396 116.585 100.664 112.344 102.033 108.089C103.402 103.834 104.726 99.7586 106.02 95.9079C107.315 92.0572 108.46 88.7911 109.472 86.0941C110.436 82.9302 112.323 80.132 114.888 78.0632C116.893 76.4278 119.376 75.5009 121.955 75.4258C123.129 75.4264 124.291 75.672 125.366 76.1464C126.441 76.6209 127.408 77.3137 128.204 78.1825C129.164 79.3369 129.887 80.6721 130.332 82.1098C130.776 83.5474 130.933 85.0596 130.793 86.5587Z" fill="#211815"/>
<path d="M89.4742 202.74C81.3305 202.846 73.2289 201.549 65.5196 198.904C63.3431 198.06 61.5882 196.38 60.6398 194.234C59.6914 192.088 59.6271 189.651 60.4608 187.457C61.2969 185.27 62.9587 183.504 65.0831 182.547C67.2074 181.59 69.6216 181.518 71.7983 182.347C73.1969 182.872 104.189 193.975 134.289 166.795C135.148 166.017 136.151 165.417 137.241 165.03C138.331 164.643 139.485 164.477 140.639 164.539C141.793 164.602 142.923 164.892 143.965 165.395C145.007 165.898 145.941 166.603 146.712 167.469C147.485 168.335 148.08 169.345 148.464 170.443C148.849 171.54 149.015 172.702 148.952 173.864C148.89 175.026 148.601 176.164 148.102 177.214C147.603 178.263 146.903 179.203 146.043 179.98C125.748 198.304 104.888 202.74 89.4742 202.74Z" fill="#211815"/>
</svg>
